<svg xmlns="http://www.w3.org/2000/svg" width="512" height="512" viewBox="0 0 512 512">
  <rect width="512" height="512" fill="#1f7a3a"/>
  <circle cx="256" cy="256" r="228" fill="#23893f"/>
  <defs><clipPath id="ball"><circle cx="256" cy="256" r="150"/></clipPath></defs>
  <circle cx="256" cy="256" r="150" fill="#ffffff"/>
  <g clip-path="url(#ball)"><polygon points="256.0,204.0 305.5,239.9 286.6,298.1 225.4,298.1 206.5,239.9" fill="#111"/><line x1="256.0" y1="204.0" x2="256.0" y2="106.0" stroke="#111" stroke-width="7"/><line x1="305.5" y1="239.9" x2="398.7" y2="209.6" stroke="#111" stroke-width="7"/><line x1="286.6" y1="298.1" x2="344.2" y2="377.4" stroke="#111" stroke-width="7"/><line x1="225.4" y1="298.1" x2="167.8" y2="377.4" stroke="#111" stroke-width="7"/><line x1="206.5" y1="239.9" x2="113.3" y2="209.6" stroke="#111" stroke-width="7"/><polygon points="312.4,178.3 295.7,126.9 339.5,95.1 383.2,126.9 366.5,178.3" fill="#111"/><polygon points="347.3,285.7 391.1,253.9 434.8,285.7 418.1,337.1 364.0,337.1" fill="#111"/><polygon points="256.0,352.0 299.7,383.8 283.0,435.2 229.0,435.2 212.3,383.8" fill="#111"/><polygon points="164.7,285.7 148.0,337.1 93.9,337.1 77.2,285.7 120.9,253.9" fill="#111"/><polygon points="199.6,178.3 145.5,178.3 128.8,126.9 172.5,95.1 216.3,126.9" fill="#111"/></g>
  <circle cx="256" cy="256" r="150" fill="none" stroke="#111" stroke-width="8"/>
</svg>